<svg width="32" height="32" viewBox="0 0 32 32" fill="none" xmlns="http://www.w3.org/2000/svg">
<path d="M6.66666 7.33329C6.66666 6.09562 7.15833 4.90863 8.0335 4.03346C8.90867 3.15829 10.0957 2.66663 11.3333 2.66663H16V12H11.3333C10.0957 12 8.90867 11.5083 8.0335 10.6331C7.15833 9.75795 6.66666 8.57097 6.66666 7.33329Z" stroke="#F9AA33" stroke-linecap="round" stroke-linejoin="round"/>
<path d="M16 2.66663H20.6667C21.2795 2.66663 21.8863 2.78733 22.4525 3.02185C23.0187 3.25638 23.5332 3.60012 23.9665 4.03346C24.3998 4.4668 24.7436 4.98125 24.9781 5.54744C25.2126 6.11362 25.3333 6.72046 25.3333 7.33329C25.3333 7.94613 25.2126 8.55296 24.9781 9.11915C24.7436 9.68533 24.3998 10.1998 23.9665 10.6331C23.5332 11.0665 23.0187 11.4102 22.4525 11.6447C21.8863 11.8793 21.2795 12 20.6667 12H16V2.66663Z" stroke="#F9AA33" stroke-linecap="round" stroke-linejoin="round"/>
<path d="M16 16.6667C16 16.0538 16.1207 15.447 16.3552 14.8808C16.5898 14.3146 16.9335 13.8002 17.3668 13.3668C17.8002 12.9335 18.3146 12.5898 18.8808 12.3552C19.447 12.1207 20.0538 12 20.6667 12C21.2795 12 21.8863 12.1207 22.4525 12.3552C23.0187 12.5898 23.5332 12.9335 23.9665 13.3668C24.3998 13.8002 24.7436 14.3146 24.9781 14.8808C25.2126 15.447 25.3333 16.0538 25.3333 16.6667C25.3333 17.2795 25.2126 17.8863 24.9781 18.4525C24.7436 19.0187 24.3998 19.5332 23.9665 19.9665C23.5332 20.3998 23.0187 20.7436 22.4525 20.9781C21.8863 21.2126 21.2795 21.3333 20.6667 21.3333C20.0538 21.3333 19.447 21.2126 18.8808 20.9781C18.3146 20.7436 17.8002 20.3998 17.3668 19.9665C16.9335 19.5332 16.5898 19.0187 16.3552 18.4525C16.1207 17.8863 16 17.2795 16 16.6667V16.6667Z" stroke="#F9AA33" stroke-linecap="round" stroke-linejoin="round"/>
<path d="M6.66666 26C6.66666 24.7624 7.15833 23.5754 8.0335 22.7002C8.90867 21.825 10.0957 21.3334 11.3333 21.3334H16V26C16 27.2377 15.5083 28.4247 14.6332 29.2999C13.758 30.175 12.571 30.6667 11.3333 30.6667C10.0957 30.6667 8.90867 30.175 8.0335 29.2999C7.15833 28.4247 6.66666 27.2377 6.66666 26Z" stroke="#F9AA33" stroke-linecap="round" stroke-linejoin="round"/>
<path d="M6.66666 16.6667C6.66666 15.429 7.15833 14.242 8.0335 13.3668C8.90867 12.4917 10.0957 12 11.3333 12H16V21.3333H11.3333C10.0957 21.3333 8.90867 20.8417 8.0335 19.9665C7.15833 19.0913 6.66666 17.9043 6.66666 16.6667Z" stroke="#F9AA33" stroke-linecap="round" stroke-linejoin="round"/>
</svg>
