<svg width="554" height="482" viewBox="0 0 554 482" fill="none" xmlns="http://www.w3.org/2000/svg">
<g clip-path="url(#clip0_11_384)">
<path d="M499.508 250.841C499.58 310.483 476.501 367.831 435.122 410.828C432.627 413.438 430.065 415.984 427.436 418.467C423.43 422.273 419.289 425.932 415.014 429.443C375.023 462.354 325.098 480.848 273.293 481.941C271.567 481.98 269.834 482 268.095 482C226.78 482 174.815 459.957 127.657 429.443C123.756 426.918 119.889 424.335 116.057 421.694C114.265 420.471 112.483 419.23 110.709 417.972C92.5209 405.144 75.2567 391.056 59.0438 375.812C48.4286 365.861 38.4744 355.229 29.2444 343.984C-6.99031 299.338 -14.9824 259.11 36.6764 250.841C42.7926 249.865 48.7285 248.821 54.4843 247.711C62.8217 246.111 70.8007 244.382 78.4215 242.526C88.6868 240.034 98.3312 237.331 107.355 234.419C110.39 233.443 113.356 232.447 116.252 231.432C159.072 216.41 187.732 196.819 207.24 175.564C210.548 171.966 213.599 168.324 216.391 164.64C220.663 159.031 224.543 153.136 228.005 146.995C232.782 138.462 236.795 129.525 239.996 120.287L240.172 119.779C255.694 75.0555 250.971 33.5718 268.095 19.6875C341.294 -39.6687 432.425 44.8601 475.199 144.542C477.355 149.565 479.383 154.618 481.283 159.701C482.136 161.972 482.959 164.247 483.752 166.526C485.836 172.467 487.727 178.422 489.425 184.393C490.076 186.67 490.697 188.945 491.288 191.218C491.92 193.67 492.525 196.117 493.086 198.563C497.248 216.475 499.508 234.139 499.508 250.841Z" fill="#F2F2F2"/>
<path d="M273.293 481.941C271.567 481.981 269.835 482 268.095 482C226.78 482 174.815 459.957 127.657 429.443C123.756 426.918 119.889 424.335 116.057 421.694L119.418 401.264L221.165 387.77L272.232 426.775L273.293 481.941Z" fill="#232F34"/>
<path d="M278.191 117.144H263.692C263.243 117.144 262.813 117.323 262.495 117.64C262.177 117.957 261.999 118.387 261.999 118.836V133.325C261.999 133.547 262.043 133.766 262.128 133.971C262.213 134.176 262.338 134.362 262.496 134.518C262.653 134.675 262.84 134.799 263.045 134.883C263.25 134.968 263.47 135.011 263.692 135.01H278.191C278.639 135.01 279.069 134.833 279.387 134.517C279.704 134.201 279.883 133.773 279.885 133.325V118.836C279.884 118.388 279.705 117.958 279.387 117.641C279.07 117.324 278.64 117.146 278.191 117.144Z" fill="white"/>
<path d="M278.191 141.835H263.692C263.243 141.836 262.813 142.014 262.495 142.331C262.177 142.648 261.999 143.078 261.999 143.527V158.016C261.999 158.238 262.043 158.458 262.128 158.662C262.213 158.867 262.338 159.053 262.496 159.21C262.653 159.366 262.84 159.49 263.045 159.575C263.25 159.659 263.47 159.702 263.692 159.701H278.191C278.639 159.702 279.069 159.524 279.387 159.208C279.704 158.893 279.883 158.464 279.885 158.016V143.527C279.884 143.079 279.705 142.649 279.387 142.332C279.07 142.015 278.64 141.837 278.191 141.835Z" fill="#E6E6E6"/>
<path d="M278.191 166.526H263.692C263.243 166.527 262.812 166.705 262.495 167.022C262.177 167.339 261.999 167.769 261.999 168.218V182.701C261.998 182.923 262.042 183.143 262.127 183.349C262.212 183.554 262.336 183.741 262.494 183.898C262.651 184.055 262.838 184.18 263.044 184.265C263.249 184.349 263.47 184.393 263.692 184.392H278.191C278.64 184.392 279.071 184.214 279.389 183.897C279.706 183.58 279.885 183.149 279.885 182.701V168.218C279.884 167.77 279.705 167.34 279.387 167.023C279.07 166.706 278.64 166.528 278.191 166.526Z" fill="#E6E6E6"/>
<path d="M279.859 192.61C279.787 192.22 279.58 191.868 279.276 191.614C278.972 191.36 278.588 191.219 278.191 191.217H263.692C263.243 191.218 262.813 191.396 262.495 191.713C262.177 192.03 261.999 192.461 261.999 192.909V207.392C261.998 207.614 262.042 207.834 262.127 208.04C262.212 208.245 262.336 208.432 262.494 208.589C262.651 208.746 262.838 208.871 263.044 208.956C263.249 209.041 263.47 209.084 263.692 209.084H278.191C278.64 209.083 279.071 208.905 279.389 208.588C279.706 208.271 279.885 207.841 279.885 207.392V192.909C279.886 192.809 279.877 192.709 279.859 192.61Z" fill="#E6E6E6"/>
<path d="M278.849 216.039C278.641 215.953 278.417 215.908 278.191 215.909H263.692C263.47 215.908 263.249 215.952 263.044 216.037C262.838 216.121 262.651 216.246 262.494 216.403C262.336 216.56 262.212 216.747 262.127 216.952C262.042 217.158 261.998 217.378 261.999 217.6V232.083C261.998 232.306 262.041 232.526 262.126 232.732C262.21 232.937 262.335 233.124 262.493 233.281C262.65 233.439 262.837 233.563 263.043 233.648C263.249 233.733 263.47 233.776 263.692 233.775H278.191C278.64 233.775 279.071 233.596 279.389 233.279C279.706 232.962 279.885 232.532 279.885 232.083V217.6C279.884 217.267 279.786 216.942 279.601 216.664C279.417 216.387 279.156 216.169 278.849 216.039Z" fill="#E6E6E6"/>
<path d="M308.649 117.144H294.149C293.7 117.144 293.27 117.323 292.952 117.64C292.635 117.957 292.456 118.387 292.456 118.836V133.325C292.456 133.547 292.5 133.766 292.586 133.971C292.671 134.176 292.796 134.362 292.953 134.518C293.11 134.675 293.297 134.799 293.502 134.883C293.707 134.968 293.927 135.011 294.149 135.01H308.649C309.097 135.01 309.527 134.833 309.844 134.517C310.161 134.201 310.341 133.773 310.342 133.325V118.836C310.341 118.388 310.162 117.958 309.845 117.641C309.527 117.324 309.097 117.146 308.649 117.144Z" fill="#E6E6E6"/>
<path d="M308.649 141.835H294.149C293.7 141.836 293.27 142.014 292.952 142.331C292.635 142.648 292.456 143.078 292.456 143.527V158.016C292.456 158.238 292.5 158.458 292.586 158.662C292.671 158.867 292.796 159.053 292.953 159.21C293.11 159.366 293.297 159.49 293.502 159.575C293.707 159.659 293.927 159.702 294.149 159.701H308.649C309.097 159.702 309.527 159.524 309.844 159.208C310.161 158.893 310.341 158.464 310.342 158.016V143.527C310.341 143.079 310.162 142.649 309.845 142.332C309.527 142.015 309.097 141.837 308.649 141.835Z" fill="#F9AA33"/>
<path d="M308.649 166.526H294.149C293.7 166.527 293.27 166.705 292.952 167.022C292.635 167.339 292.456 167.769 292.456 168.218V182.701C292.456 182.923 292.499 183.143 292.584 183.349C292.669 183.554 292.794 183.741 292.951 183.898C293.108 184.055 293.295 184.18 293.501 184.265C293.707 184.349 293.927 184.393 294.149 184.392H308.649C309.098 184.392 309.528 184.214 309.846 183.897C310.163 183.58 310.342 183.149 310.342 182.701V168.218C310.341 167.77 310.162 167.34 309.845 167.023C309.527 166.706 309.097 166.528 308.649 166.526Z" fill="#F9AA33"/>
<path d="M308.649 191.217H294.149C293.794 191.218 293.448 191.33 293.161 191.538C292.873 191.746 292.658 192.039 292.547 192.376C292.487 192.547 292.456 192.727 292.456 192.909V207.392C292.456 207.614 292.499 207.834 292.584 208.04C292.669 208.245 292.794 208.432 292.951 208.589C293.108 208.746 293.295 208.871 293.501 208.956C293.707 209.041 293.927 209.084 294.149 209.084H308.649C309.098 209.083 309.528 208.905 309.846 208.588C310.163 208.271 310.342 207.841 310.342 207.392V192.909C310.341 192.461 310.162 192.031 309.845 191.714C309.527 191.397 309.097 191.219 308.649 191.217Z" fill="#F9AA33"/>
<path d="M308.649 215.909H294.149C293.927 215.908 293.707 215.952 293.501 216.037C293.295 216.121 293.108 216.246 292.951 216.403C292.794 216.56 292.669 216.747 292.584 216.952C292.499 217.158 292.456 217.378 292.456 217.6V232.083C292.456 232.305 292.499 232.526 292.584 232.731C292.669 232.936 292.794 233.123 292.951 233.28C293.108 233.437 293.295 233.562 293.501 233.647C293.707 233.732 293.927 233.775 294.149 233.775H308.649C309.098 233.775 309.528 233.596 309.846 233.279C310.163 232.962 310.342 232.532 310.342 232.083V217.6C310.342 217.152 310.163 216.721 309.846 216.404C309.528 216.087 309.098 215.909 308.649 215.909Z" fill="#E6E6E6"/>
<path d="M339.106 117.144H324.607C324.158 117.144 323.727 117.323 323.41 117.64C323.092 117.957 322.914 118.387 322.913 118.836V133.325C322.914 133.547 322.958 133.766 323.043 133.971C323.128 134.176 323.253 134.362 323.41 134.518C323.567 134.675 323.754 134.799 323.959 134.883C324.165 134.968 324.385 135.011 324.607 135.01H339.106C339.554 135.01 339.984 134.833 340.301 134.517C340.619 134.201 340.798 133.773 340.799 133.325V118.836C340.798 118.388 340.619 117.958 340.302 117.641C339.985 117.324 339.555 117.146 339.106 117.144Z" fill="#F9AA33"/>
<path d="M339.106 141.835H324.607C324.158 141.836 323.727 142.014 323.41 142.331C323.092 142.648 322.914 143.078 322.913 143.527V158.016C322.914 158.238 322.958 158.458 323.043 158.662C323.128 158.867 323.253 159.053 323.41 159.21C323.567 159.366 323.754 159.49 323.959 159.575C324.165 159.659 324.385 159.702 324.607 159.701H339.106C339.554 159.702 339.984 159.524 340.301 159.208C340.619 158.893 340.798 158.464 340.799 158.016V143.527C340.798 143.079 340.619 142.649 340.302 142.332C339.985 142.015 339.555 141.837 339.106 141.835Z" fill="#F9AA33"/>
<path d="M339.106 166.526H324.607C324.158 166.527 323.727 166.705 323.41 167.022C323.092 167.339 322.914 167.769 322.913 168.218V182.701C322.913 182.923 322.956 183.143 323.041 183.349C323.126 183.554 323.251 183.741 323.408 183.898C323.566 184.055 323.753 184.18 323.958 184.265C324.164 184.349 324.384 184.393 324.607 184.392H339.106C339.555 184.392 339.986 184.214 340.303 183.897C340.621 183.58 340.799 183.149 340.799 182.701V168.218C340.798 167.77 340.619 167.34 340.302 167.023C339.985 166.706 339.555 166.528 339.106 166.526Z" fill="#E6E6E6"/>
<path d="M339.106 191.217H324.607C324.158 191.218 323.727 191.396 323.41 191.713C323.092 192.03 322.914 192.461 322.913 192.909V207.392C322.913 207.614 322.956 207.834 323.041 208.04C323.126 208.245 323.251 208.432 323.408 208.589C323.566 208.746 323.753 208.871 323.958 208.956C324.164 209.041 324.384 209.084 324.607 209.084H339.106C339.555 209.083 339.986 208.905 340.303 208.588C340.621 208.271 340.799 207.841 340.799 207.392V192.909C340.798 192.461 340.619 192.031 340.302 191.714C339.985 191.397 339.555 191.219 339.106 191.217Z" fill="#F9AA33"/>
<path d="M339.106 215.909H324.607C324.384 215.908 324.164 215.952 323.958 216.037C323.753 216.121 323.566 216.246 323.408 216.403C323.251 216.56 323.126 216.747 323.041 216.952C322.956 217.158 322.913 217.378 322.913 217.6V232.083C322.913 232.305 322.956 232.526 323.041 232.731C323.126 232.936 323.251 233.123 323.408 233.28C323.566 233.437 323.753 233.562 323.958 233.647C324.164 233.732 324.384 233.775 324.607 233.775H339.106C339.555 233.775 339.986 233.596 340.303 233.279C340.621 232.962 340.799 232.532 340.799 232.083V217.6C340.799 217.152 340.621 216.721 340.303 216.404C339.986 216.087 339.555 215.909 339.106 215.909Z" fill="#F9AA33"/>
<path d="M369.563 117.144H355.064C354.615 117.144 354.184 117.323 353.867 117.64C353.549 117.957 353.371 118.387 353.37 118.836V133.325C353.371 133.547 353.415 133.766 353.5 133.971C353.585 134.176 353.71 134.362 353.867 134.518C354.025 134.675 354.211 134.799 354.417 134.883C354.622 134.968 354.842 135.011 355.064 135.01H369.563C370.011 135.01 370.441 134.833 370.758 134.517C371.076 134.201 371.255 133.773 371.257 133.325V118.836C371.255 118.388 371.076 117.958 370.759 117.641C370.442 117.324 370.012 117.146 369.563 117.144Z" fill="#F9AA33"/>
<path d="M369.563 141.835H355.064C354.615 141.836 354.184 142.014 353.867 142.331C353.549 142.648 353.371 143.078 353.37 143.527V158.016C353.371 158.238 353.415 158.458 353.5 158.662C353.585 158.867 353.71 159.053 353.867 159.21C354.025 159.366 354.211 159.49 354.417 159.575C354.622 159.659 354.842 159.702 355.064 159.701H369.563C370.011 159.702 370.441 159.524 370.758 159.208C371.076 158.893 371.255 158.464 371.257 158.016V143.527C371.255 143.079 371.076 142.649 370.759 142.332C370.442 142.015 370.012 141.837 369.563 141.835Z" fill="white"/>
<path d="M369.563 166.526H355.064C354.615 166.527 354.184 166.705 353.867 167.022C353.549 167.339 353.371 167.769 353.37 168.218V182.701C353.37 182.923 353.413 183.143 353.498 183.349C353.583 183.554 353.708 183.741 353.865 183.898C354.023 184.055 354.21 184.18 354.415 184.265C354.621 184.349 354.841 184.393 355.064 184.392H369.563C370.012 184.392 370.443 184.214 370.76 183.897C371.078 183.58 371.256 183.149 371.257 182.701V168.218C371.255 167.77 371.076 167.34 370.759 167.023C370.442 166.706 370.012 166.528 369.563 166.526Z" fill="white"/>
<path d="M369.563 191.217H355.064C354.615 191.218 354.184 191.396 353.867 191.713C353.549 192.03 353.371 192.461 353.37 192.909V207.392C353.37 207.614 353.413 207.834 353.498 208.04C353.583 208.245 353.708 208.432 353.865 208.589C354.023 208.746 354.21 208.871 354.415 208.956C354.621 209.041 354.841 209.084 355.064 209.084H369.563C370.012 209.083 370.443 208.905 370.76 208.588C371.078 208.271 371.256 207.841 371.257 207.392V192.909C371.255 192.461 371.076 192.031 370.759 191.714C370.442 191.397 370.012 191.219 369.563 191.217Z" fill="#E6E6E6"/>
<path d="M369.563 215.909H355.064C354.841 215.908 354.621 215.952 354.415 216.037C354.21 216.121 354.023 216.246 353.865 216.403C353.708 216.56 353.583 216.747 353.498 216.952C353.413 217.158 353.37 217.378 353.37 217.6V232.083C353.37 232.305 353.413 232.526 353.498 232.731C353.583 232.936 353.708 233.123 353.865 233.28C354.023 233.437 354.21 233.562 354.415 233.647C354.621 233.732 354.841 233.775 355.064 233.775H369.563C370.012 233.775 370.443 233.596 370.76 233.279C371.078 232.962 371.256 232.532 371.257 232.083V217.6C371.256 217.152 371.078 216.721 370.76 216.404C370.443 216.087 370.012 215.909 369.563 215.909Z" fill="#F9AA33"/>
<path d="M400.02 117.144H385.515C385.067 117.146 384.637 117.325 384.321 117.642C384.005 117.959 383.827 118.388 383.828 118.836V133.325C383.828 133.772 384.006 134.201 384.322 134.517C384.638 134.833 385.067 135.01 385.515 135.01H400.02C400.468 135.01 400.898 134.833 401.216 134.517C401.533 134.201 401.712 133.773 401.714 133.325V118.836C401.713 118.388 401.534 117.958 401.216 117.641C400.899 117.324 400.469 117.146 400.02 117.144Z" fill="white"/>
<path d="M400.02 141.835H385.515C385.067 141.837 384.637 142.016 384.321 142.333C384.005 142.65 383.827 143.079 383.828 143.527V158.016C383.828 158.463 384.006 158.892 384.322 159.208C384.638 159.524 385.067 159.701 385.515 159.701H400.02C400.468 159.702 400.898 159.524 401.216 159.208C401.533 158.893 401.712 158.464 401.714 158.016V143.527C401.713 143.079 401.534 142.649 401.216 142.332C400.899 142.015 400.469 141.837 400.02 141.835Z" fill="white"/>
<path d="M400.02 166.526H385.515C385.067 166.528 384.637 166.707 384.321 167.024C384.005 167.341 383.827 167.771 383.828 168.218V182.701C383.827 182.923 383.87 183.142 383.955 183.347C384.039 183.553 384.163 183.739 384.32 183.896C384.477 184.053 384.663 184.178 384.868 184.263C385.073 184.348 385.293 184.392 385.515 184.392H400.02C400.469 184.392 400.9 184.214 401.218 183.897C401.535 183.58 401.714 183.149 401.714 182.701V168.218C401.713 167.77 401.534 167.34 401.216 167.023C400.899 166.706 400.469 166.528 400.02 166.526Z" fill="white"/>
<path d="M400.02 191.217H385.515C385.067 191.219 384.637 191.398 384.321 191.715C384.005 192.032 383.827 192.462 383.828 192.909V207.392C383.827 207.614 383.87 207.833 383.955 208.039C384.039 208.244 384.163 208.43 384.32 208.587C384.477 208.744 384.663 208.869 384.868 208.954C385.073 209.039 385.293 209.083 385.515 209.084H400.02C400.469 209.083 400.9 208.905 401.218 208.588C401.535 208.271 401.714 207.841 401.714 207.392V192.909C401.713 192.461 401.534 192.031 401.216 191.714C400.899 191.397 400.469 191.219 400.02 191.217Z" fill="#F9AA33"/>
<path d="M400.02 215.909H385.515C385.293 215.909 385.073 215.953 384.868 216.038C384.663 216.123 384.477 216.248 384.32 216.405C384.163 216.562 384.039 216.749 383.955 216.954C383.87 217.159 383.827 217.378 383.828 217.6V232.083C383.827 232.305 383.87 232.525 383.955 232.73C384.039 232.935 384.163 233.121 384.32 233.278C384.477 233.435 384.663 233.56 384.868 233.645C385.073 233.731 385.293 233.775 385.515 233.775H400.02C400.469 233.775 400.9 233.596 401.218 233.279C401.535 232.962 401.714 232.532 401.714 232.083V217.6C401.714 217.152 401.535 216.721 401.218 216.404C400.9 216.087 400.469 215.909 400.02 215.909Z" fill="#E6E6E6"/>
<path d="M430.478 117.144H415.972C415.524 117.146 415.095 117.325 414.778 117.642C414.462 117.959 414.285 118.388 414.285 118.836V133.325C414.285 133.772 414.463 134.201 414.779 134.517C415.095 134.833 415.524 135.01 415.972 135.01H430.478C430.926 135.01 431.355 134.833 431.673 134.517C431.99 134.201 432.17 133.773 432.171 133.325V118.836C432.17 118.388 431.991 117.958 431.674 117.641C431.356 117.324 430.926 117.146 430.478 117.144Z" fill="white"/>
<path d="M430.478 141.835H415.972C415.524 141.837 415.095 142.016 414.778 142.333C414.462 142.65 414.285 143.079 414.285 143.527V158.016C414.285 158.463 414.463 158.892 414.779 159.208C415.095 159.524 415.524 159.701 415.972 159.701H430.478C430.926 159.702 431.355 159.524 431.673 159.208C431.99 158.893 432.17 158.464 432.171 158.016V143.527C432.17 143.079 431.991 142.649 431.674 142.332C431.356 142.015 430.926 141.837 430.478 141.835Z" fill="white"/>
<path d="M430.478 166.526H415.972C415.524 166.528 415.095 166.707 414.778 167.024C414.462 167.341 414.285 167.771 414.285 168.218V182.701C414.284 182.923 414.327 183.142 414.412 183.347C414.496 183.553 414.62 183.739 414.777 183.896C414.934 184.053 415.12 184.178 415.325 184.263C415.53 184.348 415.75 184.392 415.972 184.392H430.478C430.927 184.392 431.357 184.214 431.675 183.897C431.992 183.58 432.171 183.149 432.171 182.701V168.218C432.17 167.77 431.991 167.34 431.674 167.023C431.356 166.706 430.926 166.528 430.478 166.526Z" fill="#F9AA33"/>
<path d="M430.478 191.217H415.972C415.524 191.219 415.095 191.398 414.778 191.715C414.462 192.032 414.285 192.462 414.285 192.909V207.392C414.284 207.614 414.327 207.833 414.412 208.039C414.496 208.244 414.62 208.43 414.777 208.587C414.934 208.744 415.12 208.869 415.325 208.954C415.53 209.039 415.75 209.083 415.972 209.084H430.478C430.927 209.083 431.357 208.905 431.675 208.588C431.992 208.271 432.171 207.841 432.171 207.392V192.909C432.17 192.461 431.991 192.031 431.674 191.714C431.356 191.397 430.926 191.219 430.478 191.217Z" fill="#E6E6E6"/>
<path d="M430.478 215.909H415.972C415.75 215.909 415.53 215.953 415.325 216.038C415.12 216.123 414.934 216.248 414.777 216.405C414.62 216.562 414.496 216.749 414.412 216.954C414.327 217.159 414.284 217.378 414.285 217.6V232.083C414.284 232.305 414.327 232.525 414.412 232.73C414.496 232.935 414.62 233.121 414.777 233.278C414.934 233.435 415.12 233.56 415.325 233.645C415.53 233.731 415.75 233.775 415.972 233.775H430.478C430.927 233.775 431.357 233.596 431.675 233.279C431.992 232.962 432.171 232.532 432.171 232.083V217.6C432.171 217.152 431.992 216.722 431.675 216.404C431.357 216.087 430.927 215.909 430.478 215.909Z" fill="white"/>
<path d="M460.935 117.144H446.429C445.981 117.146 445.552 117.325 445.236 117.642C444.919 117.959 444.742 118.388 444.742 118.836V133.325C444.742 133.772 444.92 134.201 445.236 134.517C445.553 134.833 445.982 135.01 446.429 135.01H460.935C461.383 135.01 461.813 134.833 462.13 134.517C462.448 134.201 462.627 133.773 462.628 133.325V118.836C462.627 118.388 462.448 117.958 462.131 117.641C461.813 117.324 461.383 117.146 460.935 117.144Z" fill="#F9AA33"/>
<path d="M460.935 141.835H446.429C445.981 141.837 445.552 142.016 445.236 142.333C444.919 142.65 444.742 143.079 444.742 143.527V158.016C444.742 158.463 444.92 158.892 445.236 159.208C445.553 159.524 445.982 159.701 446.429 159.701H460.935C461.383 159.702 461.813 159.524 462.13 159.208C462.448 158.893 462.627 158.464 462.628 158.016V143.527C462.627 143.079 462.448 142.649 462.131 142.332C461.813 142.015 461.383 141.837 460.935 141.835Z" fill="#F9AA33"/>
<path d="M460.935 166.526H446.429C445.981 166.528 445.552 166.707 445.236 167.024C444.919 167.341 444.742 167.771 444.742 168.218V182.701C444.742 182.923 444.785 183.142 444.869 183.347C444.954 183.553 445.078 183.739 445.234 183.896C445.391 184.053 445.577 184.178 445.782 184.263C445.987 184.348 446.207 184.392 446.429 184.392H460.935C461.384 184.392 461.814 184.214 462.132 183.897C462.45 183.58 462.628 183.149 462.628 182.701V168.218C462.627 167.77 462.448 167.34 462.131 167.023C461.813 166.706 461.383 166.528 460.935 166.526Z" fill="#E6E6E6"/>
<path d="M460.935 191.217H446.429C445.981 191.219 445.552 191.398 445.236 191.715C444.919 192.032 444.742 192.462 444.742 192.909V207.392C444.742 207.614 444.785 207.833 444.869 208.039C444.954 208.244 445.078 208.43 445.234 208.587C445.391 208.744 445.577 208.869 445.782 208.954C445.987 209.039 446.207 209.083 446.429 209.084H460.935C461.384 209.083 461.814 208.905 462.132 208.588C462.45 208.271 462.628 207.841 462.628 207.392V192.909C462.627 192.461 462.448 192.031 462.131 191.714C461.813 191.397 461.383 191.219 460.935 191.217Z" fill="white"/>
<path d="M460.935 215.909H446.429C446.207 215.909 445.987 215.953 445.782 216.038C445.577 216.123 445.391 216.248 445.234 216.405C445.078 216.562 444.954 216.749 444.869 216.954C444.785 217.159 444.742 217.378 444.742 217.6V232.083C444.742 232.305 444.785 232.525 444.869 232.73C444.954 232.935 445.078 233.121 445.234 233.278C445.391 233.435 445.577 233.56 445.782 233.645C445.987 233.731 446.207 233.775 446.429 233.775H460.935C461.384 233.775 461.814 233.596 462.132 233.279C462.45 232.962 462.628 232.532 462.628 232.083V217.6C462.628 217.152 462.45 216.722 462.132 216.404C461.814 216.087 461.384 215.909 460.935 215.909Z" fill="#F9AA33"/>
<path d="M491.392 117.144H476.886C476.438 117.146 476.009 117.325 475.693 117.642C475.377 117.959 475.199 118.388 475.199 118.836V133.325C475.199 133.772 475.377 134.201 475.694 134.517C476.01 134.833 476.439 135.01 476.886 135.01H491.392C491.84 135.01 492.27 134.833 492.587 134.517C492.905 134.201 493.084 133.773 493.086 133.325V118.836C493.084 118.388 492.905 117.958 492.588 117.641C492.271 117.324 491.841 117.146 491.392 117.144Z" fill="#F9AA33"/>
<path d="M491.392 141.835H476.886C476.438 141.837 476.009 142.016 475.693 142.333C475.377 142.65 475.199 143.079 475.199 143.527V158.016C475.199 158.463 475.377 158.892 475.694 159.208C476.01 159.524 476.439 159.701 476.886 159.701H491.392C491.84 159.702 492.27 159.524 492.587 159.208C492.905 158.893 493.084 158.464 493.086 158.016V143.527C493.084 143.079 492.905 142.649 492.588 142.332C492.271 142.015 491.841 141.837 491.392 141.835Z" fill="#F9AA33"/>
<path d="M491.392 166.526H476.886C476.438 166.528 476.009 166.707 475.693 167.024C475.377 167.341 475.199 167.771 475.199 168.218V182.701C475.199 182.923 475.242 183.142 475.326 183.347C475.411 183.553 475.535 183.739 475.692 183.896C475.848 184.053 476.035 184.178 476.24 184.263C476.445 184.348 476.664 184.392 476.886 184.392H491.392C491.841 184.392 492.272 184.214 492.589 183.897C492.907 183.58 493.085 183.149 493.086 182.701V168.218C493.084 167.77 492.905 167.34 492.588 167.023C492.271 166.706 491.841 166.528 491.392 166.526Z" fill="#E6E6E6"/>
<path d="M491.392 191.217H476.886C476.438 191.219 476.009 191.398 475.693 191.715C475.377 192.032 475.199 192.462 475.199 192.909V207.392C475.199 207.614 475.242 207.833 475.326 208.039C475.411 208.244 475.535 208.43 475.692 208.587C475.848 208.744 476.035 208.869 476.24 208.954C476.445 209.039 476.664 209.083 476.886 209.084H491.392C491.841 209.083 492.272 208.905 492.589 208.588C492.907 208.271 493.085 207.841 493.086 207.392V192.909C493.084 192.461 492.905 192.031 492.588 191.714C492.271 191.397 491.841 191.219 491.392 191.217Z" fill="#F9AA33"/>
<path d="M491.392 215.909H476.886C476.664 215.909 476.445 215.953 476.24 216.038C476.035 216.123 475.848 216.248 475.692 216.405C475.535 216.562 475.411 216.749 475.326 216.954C475.242 217.159 475.199 217.378 475.199 217.6V232.083C475.199 232.305 475.242 232.525 475.326 232.73C475.411 232.935 475.535 233.121 475.692 233.278C475.848 233.435 476.035 233.56 476.24 233.645C476.445 233.731 476.664 233.775 476.886 233.775H491.392C491.841 233.775 492.272 233.596 492.589 233.279C492.907 232.962 493.085 232.532 493.086 232.083V217.6C493.085 217.152 492.907 216.722 492.589 216.404C492.272 216.087 491.841 215.909 491.392 215.909Z" fill="#F9AA33"/>
<path d="M521.849 117.144H507.344C506.896 117.146 506.466 117.325 506.15 117.642C505.834 117.959 505.656 118.388 505.657 118.836V133.325C505.657 133.772 505.834 134.201 506.151 134.517C506.467 134.833 506.896 135.01 507.344 135.01H521.849C522.297 135.01 522.727 134.833 523.045 134.517C523.362 134.201 523.541 133.773 523.543 133.325V118.836C523.541 118.388 523.363 117.958 523.045 117.641C522.728 117.324 522.298 117.146 521.849 117.144Z" fill="#E6E6E6"/>
<path d="M521.849 141.835H507.344C506.896 141.837 506.466 142.016 506.15 142.333C505.834 142.65 505.656 143.079 505.657 143.527V158.016C505.657 158.463 505.834 158.892 506.151 159.208C506.467 159.524 506.896 159.701 507.344 159.701H521.849C522.297 159.702 522.727 159.524 523.045 159.208C523.362 158.893 523.541 158.464 523.543 158.016V143.527C523.541 143.079 523.363 142.649 523.045 142.332C522.728 142.015 522.298 141.837 521.849 141.835Z" fill="#F9AA33"/>
<path d="M521.849 166.526H507.344C506.896 166.528 506.466 166.707 506.15 167.024C505.834 167.341 505.656 167.771 505.657 168.218V182.701C505.656 182.923 505.699 183.142 505.784 183.347C505.868 183.553 505.992 183.739 506.149 183.896C506.306 184.053 506.492 184.178 506.697 184.263C506.902 184.348 507.122 184.392 507.344 184.392H521.849C522.298 184.392 522.729 184.214 523.046 183.897C523.364 183.58 523.543 183.149 523.543 182.701V168.218C523.541 167.77 523.363 167.34 523.045 167.023C522.728 166.706 522.298 166.528 521.849 166.526Z" fill="#F9AA33"/>
<path d="M521.849 191.217H507.344C506.896 191.219 506.466 191.398 506.15 191.715C505.834 192.032 505.656 192.462 505.657 192.909V207.392C505.656 207.614 505.699 207.833 505.784 208.039C505.868 208.244 505.992 208.43 506.149 208.587C506.306 208.744 506.492 208.869 506.697 208.954C506.902 209.039 507.122 209.083 507.344 209.084H521.849C522.298 209.083 522.729 208.905 523.046 208.588C523.364 208.271 523.543 207.841 523.543 207.392V192.909C523.541 192.461 523.363 192.031 523.045 191.714C522.728 191.397 522.298 191.219 521.849 191.217Z" fill="#F9AA33"/>
<path d="M521.849 215.909H507.344C507.122 215.909 506.902 215.953 506.697 216.038C506.492 216.123 506.306 216.248 506.149 216.405C505.992 216.562 505.868 216.749 505.784 216.954C505.699 217.159 505.656 217.378 505.657 217.6V232.083C505.656 232.305 505.699 232.525 505.784 232.73C505.868 232.935 505.992 233.121 506.149 233.278C506.306 233.435 506.492 233.56 506.697 233.645C506.902 233.731 507.122 233.775 507.344 233.775H521.849C522.298 233.775 522.729 233.596 523.046 233.279C523.364 232.962 523.543 232.532 523.543 232.083V217.6C523.543 217.152 523.364 216.722 523.046 216.404C522.729 216.087 522.298 215.909 521.849 215.909Z" fill="#E6E6E6"/>
<path d="M552.306 117.144H537.801C537.353 117.146 536.924 117.325 536.607 117.642C536.291 117.959 536.114 118.388 536.114 118.836V133.325C536.114 133.772 536.292 134.201 536.608 134.517C536.924 134.833 537.353 135.01 537.801 135.01H552.306C552.755 135.01 553.184 134.833 553.502 134.517C553.819 134.201 553.998 133.773 554 133.325V118.836C553.999 118.388 553.82 117.958 553.503 117.641C553.185 117.324 552.755 117.146 552.306 117.144Z" fill="#E6E6E6"/>
<path d="M552.306 141.835H537.801C537.353 141.837 536.924 142.016 536.607 142.333C536.291 142.65 536.114 143.079 536.114 143.527V158.016C536.114 158.463 536.292 158.892 536.608 159.208C536.924 159.524 537.353 159.701 537.801 159.701H552.306C552.755 159.702 553.184 159.524 553.502 159.208C553.819 158.893 553.998 158.464 554 158.016V143.527C553.999 143.079 553.82 142.649 553.503 142.332C553.185 142.015 552.755 141.837 552.306 141.835Z" fill="#E6E6E6"/>
<path d="M552.306 166.526H537.801C537.353 166.528 536.924 166.707 536.607 167.024C536.291 167.341 536.114 167.77 536.114 168.218V182.701C536.113 182.923 536.156 183.142 536.241 183.347C536.325 183.553 536.449 183.739 536.606 183.896C536.763 184.053 536.949 184.178 537.154 184.263C537.359 184.348 537.579 184.392 537.801 184.392H552.306C552.756 184.392 553.186 184.214 553.504 183.897C553.821 183.58 554 183.149 554 182.701V168.218C553.999 167.77 553.82 167.34 553.503 167.023C553.185 166.706 552.755 166.528 552.306 166.526Z" fill="#F9AA33"/>
<path d="M552.306 191.217H537.801C537.353 191.219 536.924 191.398 536.607 191.715C536.291 192.032 536.114 192.462 536.114 192.909V207.392C536.113 207.614 536.156 207.833 536.241 208.039C536.325 208.244 536.449 208.43 536.606 208.587C536.763 208.744 536.949 208.869 537.154 208.954C537.359 209.039 537.579 209.083 537.801 209.084H552.306C552.756 209.083 553.186 208.905 553.504 208.588C553.821 208.271 554 207.841 554 207.392V192.909C553.999 192.461 553.82 192.031 553.503 191.714C553.185 191.397 552.755 191.219 552.306 191.217Z" fill="#E6E6E6"/>
<path d="M552.306 215.909H537.801C537.579 215.909 537.359 215.953 537.154 216.038C536.949 216.123 536.763 216.248 536.606 216.405C536.449 216.562 536.325 216.749 536.241 216.954C536.156 217.159 536.113 217.378 536.114 217.6V232.083C536.113 232.305 536.156 232.525 536.241 232.73C536.325 232.935 536.449 233.121 536.606 233.278C536.763 233.435 536.949 233.56 537.154 233.645C537.359 233.731 537.579 233.775 537.801 233.775H552.306C552.756 233.775 553.186 233.596 553.504 233.279C553.821 232.962 554 232.532 554 232.083V217.6C554 217.152 553.821 216.722 553.504 216.404C553.186 216.087 552.756 215.909 552.306 215.909Z" fill="#E6E6E6"/>
<path d="M218.916 429.444H218.512L218.858 429.398L218.916 429.444Z" fill="#2F2E41"/>
<path d="M184.212 159.438C208.789 159.438 228.713 139.536 228.713 114.986C228.713 90.4362 208.789 70.5345 184.212 70.5345C159.634 70.5345 139.71 90.4362 139.71 114.986C139.71 139.536 159.634 159.438 184.212 159.438Z" fill="#FFB6B6"/>
<path d="M223.183 82.395C223.183 82.395 234.823 60.1692 209.216 58.1486C209.216 58.1486 187.386 38.3682 165.135 54.5325C165.135 54.5325 152.998 54.5325 146.361 68.2513C146.361 68.2513 136.816 64.6351 134.718 74.3128C134.718 74.3128 127.733 94.5182 134.718 112.703C141.703 130.888 144.023 132.908 144.023 132.908C144.023 132.908 132.545 94.7829 160.483 92.7623C188.42 90.7418 219.682 73.3026 222.01 95.5284C224.338 117.754 227.842 123.231 227.842 123.231C227.842 123.231 249.955 91.4875 223.183 82.395Z" fill="#2F2E41"/>
<path d="M299.328 224.536L299.184 225.291L297.576 233.775L286.457 292.461L285.799 295.916L284.418 303.222L282.529 313.19L278.341 335.278L277.143 341.609L276.693 343.984L276.537 344.816L275.293 351.368L274.915 353.346L271.88 375.812L269.229 395.389L278.1 404.251L272.811 409.534L269.34 429.397L269.346 429.443H127.657C121.925 425.734 116.276 421.911 110.709 417.972L111.875 409.254C111.875 409.254 115.887 393.685 114.2 391.824C112.52 389.963 108.833 386.638 108.833 386.638L113.477 375.812L114.122 374.309L113.041 351.908L113.015 351.368L112.657 343.984L112.611 343.034L112.539 341.609L111.165 313.19L111.139 312.721L110.722 304.107L110.331 295.916L110.162 292.461L108.488 257.893L107.355 234.419L106.365 213.983L110.344 212.636L152.91 198.186L170.542 175.29L207.24 175.563L225.204 175.7L255.179 203.469L261.999 206.722L262.051 206.748L266.943 209.084L279.344 214.998L292.456 221.257L299.184 224.464L299.328 224.536Z" fill="#CACACA"/>
<path d="M175.285 362.755C172.595 363.796 169.711 364.235 166.833 364.041C163.956 363.848 161.156 363.026 158.631 361.635C156.105 360.243 153.916 358.316 152.217 355.988C150.519 353.66 149.351 350.989 148.798 348.161L79.3908 338.325L103.519 311.063L165.73 324.583C170.546 323.969 175.421 325.142 179.43 327.878C183.439 330.615 186.303 334.725 187.481 339.43C188.659 344.135 188.068 349.108 185.82 353.407C183.572 357.706 179.824 361.032 175.285 362.755V362.755Z" fill="#FFB6B6"/>
<path d="M144.338 313.19C143.053 311.561 141.233 310.439 139.199 310.021L110.722 304.107L107.798 303.502C106.098 303.148 104.492 302.439 103.086 301.422C101.68 300.405 100.504 299.103 99.6361 297.601C98.7359 296.024 98.1912 294.27 98.0403 292.461C97.9045 290.816 98.1017 289.161 98.62 287.594L108.488 257.893L114.891 238.622C115.667 236.298 116.125 233.879 116.252 231.432C116.609 224.661 114.512 217.988 110.344 212.636C106.681 207.932 101.599 204.529 95.8507 202.931C90.1022 201.333 83.9916 201.624 78.4215 203.761C78.2587 203.82 78.0893 203.885 77.9265 203.95C73.9319 205.543 70.363 208.043 67.5019 211.251C64.6407 214.459 62.5657 218.287 61.4408 222.434L54.4843 247.711L40.135 299.819C38.6986 305.04 38.4084 310.509 39.2843 315.853C40.1602 321.196 42.1815 326.287 45.2099 330.777C48.2383 335.268 52.2022 339.052 56.8304 341.87C61.4586 344.688 66.6418 346.475 72.0252 347.107L113.041 351.908L132.021 354.133C134.216 354.397 136.43 353.825 138.221 352.531C140.012 351.237 141.25 349.317 141.687 347.152C141.718 347.034 141.742 346.915 141.759 346.794L142.215 343.983L146.078 320.314L146.117 320.073C146.318 318.865 146.264 317.629 145.957 316.443C145.651 315.258 145.1 314.149 144.338 313.19Z" fill="#CACACA"/>
<path d="M219.494 363.514C222.304 364.165 225.222 364.193 228.043 363.596C230.864 363 233.52 361.792 235.824 360.059C238.128 358.326 240.023 356.109 241.376 353.565C242.729 351.021 243.507 348.212 243.656 345.335L310.981 325.821L283.246 302.229L223.565 324.377C218.71 324.448 214.049 326.296 210.467 329.569C206.884 332.843 204.628 337.316 204.127 342.14C203.625 346.964 204.912 351.804 207.745 355.744C210.577 359.683 214.758 362.448 219.494 363.514V363.514Z" fill="#FFB6B6"/>
<path d="M344.408 282.168L312.387 208.557C309.768 202.513 305.091 197.592 299.184 194.666C297.359 193.768 295.441 193.07 293.466 192.584C293.159 192.506 292.853 192.434 292.547 192.376C288.357 191.462 284.012 191.543 279.859 192.61C276.063 193.584 272.514 195.347 269.446 197.783C266.378 200.219 263.858 203.274 262.051 206.748C262.031 206.777 262.014 206.807 261.999 206.839C259.98 210.739 258.907 215.058 258.865 219.449C258.823 223.839 259.814 228.178 261.758 232.116L262.155 232.909L284.783 278.303C285.556 279.856 285.991 281.553 286.061 283.286C286.13 285.018 285.832 286.745 285.186 288.354C284.54 289.963 283.561 291.418 282.313 292.622C281.065 293.827 279.576 294.754 277.944 295.343L276.354 295.916L247.773 306.228C245.629 306.992 243.864 308.558 242.852 310.596C241.84 312.633 241.659 314.984 242.347 317.152L242.419 317.38L250.431 342.988C250.47 343.105 250.509 343.222 250.554 343.339C250.625 343.56 250.712 343.776 250.815 343.984C251.666 345.891 253.171 347.432 255.059 348.331C256.947 349.229 259.093 349.424 261.113 348.883L276.537 344.816L279.683 343.984L319.513 333.476C324.754 332.093 329.634 329.594 333.818 326.152C338.003 322.71 341.393 318.406 343.757 313.533C346.121 308.66 347.403 303.335 347.516 297.921C347.628 292.508 346.568 287.134 344.408 282.168L344.408 282.168Z" fill="#CACACA"/>
<path d="M29.2444 343.984C38.4744 355.229 48.4286 365.861 59.0438 375.812H353.436C356.272 375.816 358.991 376.944 360.996 378.948C363.001 380.952 364.128 383.669 364.131 386.502L364.554 461.017C382.665 452.706 399.625 442.093 415.014 429.443C419.287 425.936 423.428 422.277 427.436 418.467C430.061 415.981 432.623 413.435 435.122 410.828C453.857 391.333 469.028 368.709 479.948 343.984H29.2444Z" fill="#232F34"/>
<path d="M435.122 410.828C432.627 413.437 430.065 415.984 427.436 418.467H364.769V410.828H435.122Z" fill="white"/>
<path d="M298.742 166.526C298.432 165.956 297.974 165.479 297.415 165.147C296.857 164.815 296.219 164.64 295.569 164.64H82.03C81.0726 164.642 80.1553 165.024 79.4789 165.7C78.8025 166.377 78.4223 167.294 78.4215 168.251V295.916H299.184V168.251C299.188 167.647 299.035 167.053 298.742 166.526Z" fill="#232F34"/>
<path d="M78.2281 292.459V308.213C78.2281 308.866 78.3569 309.513 78.6071 310.116C78.8573 310.72 79.2241 311.268 79.6864 311.73C80.1487 312.192 80.6976 312.558 81.3017 312.808C81.9057 313.058 82.5531 313.187 83.207 313.187H164.689V344.278H163.607C163.522 344.278 163.438 344.294 163.359 344.327C163.281 344.359 163.209 344.407 163.149 344.467C163.089 344.527 163.042 344.598 163.009 344.676C162.977 344.755 162.96 344.839 162.96 344.924V347.086C162.96 347.171 162.977 347.255 163.009 347.333C163.042 347.412 163.089 347.483 163.149 347.543C163.209 347.603 163.281 347.651 163.359 347.683C163.438 347.715 163.522 347.732 163.607 347.732H214.19C214.275 347.732 214.359 347.715 214.437 347.683C214.516 347.651 214.587 347.603 214.647 347.543C214.707 347.483 214.755 347.412 214.787 347.333C214.82 347.255 214.836 347.171 214.836 347.086V344.924C214.836 344.839 214.82 344.755 214.787 344.676C214.755 344.598 214.707 344.527 214.647 344.467C214.587 344.407 214.516 344.359 214.437 344.327C214.359 344.294 214.275 344.278 214.19 344.278H213.107V313.187H294.589C295.243 313.187 295.89 313.058 296.494 312.808C297.099 312.558 297.647 312.192 298.11 311.73C298.572 311.268 298.939 310.72 299.189 310.116C299.439 309.513 299.568 308.866 299.568 308.213V292.459H78.2281Z" fill="#232F34"/>
<path d="M186.224 247.243C197.485 247.243 206.615 238.124 206.615 226.874C206.615 215.625 197.485 206.506 186.224 206.506C174.962 206.506 165.832 215.625 165.832 226.874C165.832 238.124 174.962 247.243 186.224 247.243Z" fill="#F9AA33"/>
<path d="M238.179 112.557H234.922C234.922 87.9638 210.555 71.8479 185.973 71.8349C182.397 71.8245 178.83 72.171 175.323 72.8694C171.376 73.6566 167.279 74.6 163.254 75.8297C147.38 80.6899 132.66 90.0849 132.66 112.557C132.656 116.922 133.212 121.268 134.314 125.492L131.162 126.312C129.992 121.82 129.401 117.198 129.403 112.557C129.403 92.9216 137.473 79.4342 151.412 71.3925C158.74 67.1634 167.683 64.4373 177.929 63.1101C182.192 62.5435 186.503 62.4127 190.793 62.7197C219.062 64.7496 238.179 86.4023 238.179 112.557Z" fill="#F9AA33"/>
<path d="M243.605 114.36L242.321 104.886C242.005 102.494 240.851 100.291 239.065 98.6665C237.918 97.6076 236.545 96.8231 235.05 96.3722C233.554 95.9213 231.976 95.816 230.434 96.064L228.395 96.3438C227.838 96.4171 227.3 96.6004 226.813 96.883C226.327 97.1656 225.902 97.5418 225.562 97.9899C225.22 98.4364 224.969 98.9464 224.825 99.4902C224.68 100.034 224.646 100.601 224.722 101.158L227.685 122.98C227.808 123.87 228.207 124.698 228.826 125.349C229.446 125.999 230.254 126.438 231.138 126.604C231.399 126.657 231.665 126.683 231.932 126.682C232.124 126.682 232.316 126.669 232.506 126.643L234.785 126.337C236.175 126.153 237.513 125.687 238.716 124.968C239.919 124.248 240.962 123.291 241.781 122.154C241.957 121.907 242.126 121.653 242.282 121.393C243.503 119.264 243.969 116.786 243.605 114.36Z" fill="#F9AA33"/>
<path d="M227.08 96.7407C226.482 97.0309 225.962 97.4591 225.562 97.9899C225.22 98.4365 224.969 98.9464 224.825 99.4902C224.68 100.034 224.646 100.601 224.722 101.158L227.685 122.98C227.808 123.87 228.207 124.698 228.826 125.349C229.446 125.999 230.254 126.438 231.138 126.604L227.08 96.7407Z" fill="white"/>
<path d="M243.605 114.36L242.321 104.886C242.005 102.494 240.851 100.291 239.065 98.6665L242.015 120.378C242.059 120.726 242.149 121.068 242.282 121.393C243.503 119.264 243.969 116.786 243.605 114.36Z" fill="#232F34"/>
<path d="M233.463 121.185C234.354 121.064 234.802 118.946 234.464 116.453C234.125 113.961 233.128 112.038 232.237 112.159C231.346 112.28 230.898 114.398 231.237 116.891C231.575 119.383 232.572 121.306 233.463 121.185Z" fill="#232F34"/>
<path d="M231.509 109.474C232.4 109.353 232.848 107.235 232.51 104.742C232.171 102.25 231.174 100.327 230.283 100.448C229.392 100.569 228.944 102.687 229.283 105.179C229.621 107.672 230.618 109.595 231.509 109.474Z" fill="#232F34"/>
<path d="M243.885 114.028C244.776 113.907 245.224 111.789 244.885 109.297C244.547 106.804 243.55 104.881 242.659 105.002C241.768 105.123 241.32 107.241 241.658 109.734C241.997 112.226 242.994 114.149 243.885 114.028Z" fill="#232F34"/>
<path d="M185.973 71.8349C182.397 71.8244 178.83 72.171 175.323 72.8694C171.376 73.6566 167.279 74.6 163.254 75.8297C156.968 75.5239 152.344 73.8974 151.412 71.3925C158.74 67.1634 167.683 64.4373 177.929 63.11C182.192 62.5435 186.503 62.4127 190.793 62.7197C191.247 62.9856 191.64 63.3446 191.945 63.7729C192.25 64.2013 192.462 64.6894 192.565 65.205C192.871 67.4692 190.285 69.8765 185.973 71.8349Z" fill="#232F34"/>
<path d="M144.391 135.134L139.375 114.308C139.196 113.556 138.799 112.874 138.234 112.348C137.668 111.821 136.959 111.473 136.196 111.347C135.981 111.314 135.763 111.296 135.545 111.295C135.238 111.296 134.932 111.333 134.633 111.406L132.692 111.874C130.193 112.478 128.036 114.047 126.694 116.238C125.352 118.429 124.935 121.062 125.534 123.559L127.781 132.902C128.294 135.102 129.516 137.072 131.259 138.511C131.542 138.738 131.838 138.949 132.145 139.142C133.237 139.825 134.455 140.283 135.727 140.489C136.999 140.695 138.299 140.644 139.551 140.339L141.485 139.871C141.997 139.751 142.478 139.528 142.899 139.213C143.524 138.758 144 138.127 144.266 137.4C144.532 136.674 144.575 135.885 144.391 135.134Z" fill="#F9AA33"/>
<path d="M133.876 131.259C134.751 131.049 134.982 128.896 134.393 126.45C133.803 124.005 132.617 122.193 131.743 122.403C130.868 122.613 130.637 124.766 131.226 127.212C131.815 129.657 133.002 131.469 133.876 131.259Z" fill="#232F34"/>
<path d="M127.363 133.211C128.237 133.001 128.468 130.848 127.879 128.402C127.29 125.957 126.104 124.145 125.229 124.355C124.355 124.565 124.124 126.718 124.713 129.163C125.302 131.609 126.488 133.421 127.363 133.211Z" fill="#232F34"/>
<path d="M144.71 135.056L139.694 114.229C139.499 113.416 139.068 112.679 138.455 112.11C137.842 111.54 137.074 111.164 136.249 111.028L143.094 139.474C143.77 138.979 144.285 138.295 144.572 137.509C144.86 136.723 144.907 135.869 144.71 135.056Z" fill="white"/>
<path d="M126.667 119.434C126.529 118.855 126.269 118.312 125.905 117.84C125.2 119.664 125.071 121.66 125.534 123.559L127.781 132.902C128.294 135.102 129.516 137.072 131.259 138.511L126.667 119.434Z" fill="#232F34"/>
</g>
<defs>
<clipPath id="clip0_11_384">
<rect width="554" height="482" fill="white"/>
</clipPath>
</defs>
</svg>
